<?xml version="1.0" standalone="no"?>
<!DOCTYPE svg PUBLIC "-//W3C//DTD SVG 20010904//EN"
 "http://www.w3.org/TR/2001/REC-SVG-20010904/DTD/svg10.dtd">
<svg version="1.0" xmlns="http://www.w3.org/2000/svg"
 width="960.000000pt" height="960.000000pt" viewBox="0 0 960.000000 960.000000"
 preserveAspectRatio="xMidYMid meet">
<metadata>
Created by potrace 1.11, written by Peter Selinger 2001-2013
</metadata>
<g transform="translate(0.000000,960.000000) scale(0.100000,-0.100000)"
fill="#000000" stroke="none">
<path d="M4605 9420 c-122 -22 -219 -50 -345 -100 -279 -111 -479 -222 -1046
-581 -474 -300 -700 -426 -905 -505 -126 -49 -207 -66 -343 -73 l-118 -6 48
-65 c169 -230 827 -1137 830 -1145 3 -6 -34 -48 -80 -94 -63 -63 -88 -82 -98
-74 -7 5 -112 82 -233 170 -121 88 -389 282 -595 433 -206 150 -381 275 -387
277 -10 4 -13 -20 -13 -98 -1 -280 -109 -520 -548 -1217 -323 -512 -410 -661
-522 -895 -120 -252 -179 -439 -200 -638 -28 -255 48 -559 234 -937 110 -221
197 -371 491 -842 338 -539 483 -829 529 -1052 9 -42 16 -125 16 -183 0 -65 4
-105 10 -105 6 0 292 226 636 501 345 276 632 502 639 503 19 2 157 -135 151
-150 -3 -7 -179 -230 -393 -496 -560 -699 -603 -752 -603 -760 0 -5 42 -8 93
-8 298 -1 555 -116 1292 -575 519 -324 734 -444 971 -544 251 -106 220 -101
660 -101 l384 0 128 47 c237 87 546 255 1029 560 458 290 597 372 785 462 234
112 372 151 539 151 49 0 89 3 89 6 0 5 -430 600 -790 1092 -50 68 -90 126
-90 130 0 4 42 49 93 99 l92 91 170 -137 c94 -75 379 -305 635 -510 l465 -373
7 134 c15 304 126 548 583 1278 393 628 550 933 635 1237 98 350 72 615 -101
1021 -101 237 -208 422 -621 1077 -270 429 -402 683 -464 890 -20 69 -27 120
-31 218 -3 70 -8 127 -10 127 -2 0 -276 -198 -608 -440 -333 -242 -608 -440
-613 -440 -10 0 -192 183 -192 193 0 4 212 271 471 595 l471 587 -129 7 c-306
15 -544 124 -1268 577 -730 457 -1074 622 -1423 682 -139 23 -274 23 -407 -1z
m555 -2225 c142 -22 355 -75 476 -120 154 -56 389 -176 524 -266 603 -403 995
-1035 1086 -1748 18 -141 20 -428 4 -571 -81 -733 -504 -1414 -1119 -1804
-370 -235 -755 -360 -1181 -386 -902 -54 -1744 381 -2237 1155 -169 266 -299
620 -349 950 -28 183 -26 554 4 730 72 421 221 771 470 1105 99 132 318 356
443 453 390 300 827 472 1324 521 91 9 455 -3 555 -19z"/>
<path d="M4570 7148 c0 -4 11 -10 24 -14 32 -8 36 -33 36 -209 l0 -143 -30 -7
c-16 -4 -30 -10 -30 -15 0 -11 246 -1 299 12 61 16 106 58 126 119 33 99 -8
199 -101 245 -48 23 -59 25 -187 22 -75 -2 -137 -6 -137 -10z m278 -32 c63
-33 92 -86 92 -170 0 -94 -61 -157 -157 -164 -87 -6 -90 0 -99 187 -6 126 -5
155 7 162 19 13 122 3 157 -15z"/>
<path d="M5194 7091 c-80 -37 -127 -136 -104 -222 25 -92 95 -147 201 -156
146 -14 250 110 213 253 -29 116 -189 180 -310 125z m190 -19 c16 -9 38 -30
50 -45 49 -66 9 -244 -64 -282 -42 -22 -118 -19 -158 5 -106 65 -88 268 28
328 50 25 93 23 144 -6z"/>
<path d="M4030 7013 c-90 -33 -276 -106 -280 -110 -3 -3 10 -3 28 -1 40 6 34
14 101 -165 55 -147 59 -167 37 -167 -16 0 -31 -18 -23 -26 2 -3 24 4 48 15
24 11 94 39 154 62 61 23 114 45 118 49 10 9 -2 100 -13 100 -4 0 -10 -18 -14
-40 -3 -21 -15 -48 -26 -58 -20 -19 -133 -62 -160 -62 -10 0 -25 27 -43 73
-15 39 -27 75 -27 78 0 3 32 17 70 30 l70 24 25 -30 c31 -38 31 -25 1 48 -29
73 -36 79 -36 35 0 -34 -2 -36 -67 -60 l-68 -25 -23 51 c-41 89 -39 96 51 130
l77 29 30 -28 c32 -31 36 -26 19 24 -11 31 -19 35 -49 24z"/>
<path d="M5655 7002 c-3 -4 4 -14 17 -23 l22 -17 -62 -129 c-34 -71 -62 -140
-62 -154 0 -66 91 -139 175 -141 76 -1 94 19 183 207 35 73 41 80 65 77 41 -4
32 10 -22 36 -61 28 -63 28 -44 -6 15 -27 14 -31 -39 -142 -30 -63 -64 -123
-76 -134 -46 -40 -173 1 -188 61 -4 14 -1 42 6 62 13 35 107 231 116 240 2 2
15 -1 29 -7 16 -7 25 -8 25 -2 0 13 -137 80 -145 72z"/>
<path d="M3535 6761 c-71 -18 -145 -78 -171 -138 -16 -37 -18 -110 -5 -146 15
-39 71 -97 110 -113 133 -56 301 56 301 202 0 80 -47 149 -125 185 -42 20 -62
21 -110 10z m46 -31 c42 -12 113 -83 135 -135 23 -56 18 -118 -12 -155 -71
-84 -180 -80 -258 11 -34 40 -56 96 -56 143 0 66 71 137 145 145 6 0 26 -4 46
-9z"/>
<path d="M4600 6699 c-343 -39 -667 -168 -950 -377 -111 -82 -325 -302 -407
-417 -174 -246 -290 -522 -338 -805 -23 -132 -31 -404 -16 -527 52 -421 217
-788 489 -1086 328 -359 752 -575 1233 -628 207 -23 506 1 709 58 716 197
1258 796 1392 1537 29 159 31 480 5 626 -55 300 -148 535 -305 771 -320 478
-839 790 -1411 848 -118 13 -292 12 -401 0z"/>
<path d="M6072 6675 c-90 -46 -133 -146 -103 -237 16 -50 75 -114 135 -148 69
-40 87 -38 130 13 31 38 37 41 55 30 42 -26 45 -12 6 24 -22 20 -55 50 -72 67
-39 35 -57 27 -22 -10 22 -23 22 -27 9 -51 -8 -14 -27 -35 -42 -46 -24 -18
-30 -18 -57 -7 -47 19 -89 72 -96 124 -24 156 149 282 274 198 61 -41 75 -66
73 -131 l-1 -56 24 30 c31 38 31 44 -4 91 -57 80 -125 123 -205 131 -42 4 -61
0 -104 -22z"/>
<path d="M3107 6435 c-27 -30 -42 -55 -35 -55 8 0 19 5 25 11 12 12 62 -21
110 -73 l22 -23 -65 -75 c-36 -41 -70 -76 -77 -77 -7 -1 -37 20 -66 47 -52 46
-54 50 -43 76 20 43 9 37 -41 -22 -47 -57 -64 -92 -27 -59 19 17 22 16 106
-61 48 -43 104 -94 125 -112 40 -34 48 -59 27 -80 -6 -6 -9 -14 -6 -17 6 -6
100 88 106 106 5 12 -15 11 -23 -1 -3 -5 -10 -10 -15 -10 -11 0 -120 100 -120
110 0 10 131 160 139 160 3 -1 31 -23 60 -50 52 -46 54 -50 43 -76 -17 -35 -6
-44 16 -13 9 13 32 41 50 62 35 38 35 45 1 26 -17 -9 -31 -1 -97 57 -182 159
-176 152 -164 179 18 39 1 29 -51 -30z"/>
<path d="M6565 6403 c20 -48 18 -50 -104 -142 -67 -51 -128 -94 -136 -98 -9
-3 -25 3 -35 12 -47 42 -26 0 44 -89 41 -52 83 -109 92 -126 22 -35 32 -37 84
-10 48 25 51 34 8 28 -50 -8 -84 9 -128 64 -22 28 -40 54 -40 58 0 4 61 53
135 110 l136 103 29 -28 c46 -44 36 -20 -26 61 -54 73 -73 91 -59 57z"/>
<path d="M2705 5910 c-6 -10 28 -53 169 -210 80 -90 97 -119 85 -143 -6 -10
-8 -21 -5 -25 7 -7 6 -9 45 62 34 62 35 85 1 45 l-20 -24 -50 54 c-28 30 -50
60 -50 66 0 7 12 34 26 60 l27 47 49 -7 c76 -11 103 -21 99 -36 -2 -8 -6 -23
-9 -33 -10 -36 16 -7 53 60 39 71 39 91 1 55 -16 -15 -31 -20 -47 -16 -20 4
-353 55 -364 55 -2 0 -7 -5 -10 -10z m197 -66 c8 -5 -25 -79 -40 -88 -8 -5
-51 36 -92 88 -15 19 -13 19 54 12 38 -4 73 -9 78 -12z"/>
<path d="M6480 5889 c0 -16 63 -139 71 -139 6 0 5 8 -1 19 -17 33 -12 38 38
45 26 4 61 9 79 13 31 5 33 3 60 -51 l27 -56 -56 -57 -57 -57 -20 25 c-30 36
-25 6 11 -64 32 -61 32 -62 38 -31 3 22 42 70 135 168 127 134 150 166 123
166 -7 0 -100 -7 -207 -17 l-193 -17 -24 29 c-13 17 -24 27 -24 24z m390 -45
c0 -8 -92 -104 -101 -104 -6 0 -49 82 -49 94 0 3 24 7 53 9 28 2 62 4 75 5 12
1 22 -1 22 -4z"/>
<path d="M2580 5623 c0 -5 4 -13 9 -18 15 -16 -55 -277 -79 -295 -19 -14 -18
-16 31 -43 28 -16 53 -27 55 -24 3 3 -6 22 -20 44 -23 34 -24 42 -14 81 6 26
16 42 25 42 34 0 298 -72 305 -83 5 -7 7 -22 5 -35 -6 -33 11 -38 19 -5 3 15
12 51 20 80 20 75 18 95 -6 55 -21 -34 -26 -35 -106 -11 -17 5 -75 20 -128 33
-53 13 -99 25 -101 28 -8 8 23 101 37 109 7 5 23 9 36 9 32 0 27 16 -7 23 -16
3 -40 9 -55 13 -14 3 -26 2 -26 -3z"/>
<path d="M6938 5535 c-34 -19 -51 -51 -73 -135 -18 -71 -47 -110 -80 -110 -32
0 -62 26 -75 65 -14 42 7 95 46 115 36 20 16 31 -34 18 l-42 -10 0 -55 c0
-103 47 -163 127 -163 65 0 93 32 122 140 13 47 28 91 33 98 18 22 65 14 87
-14 31 -40 27 -79 -11 -116 l-33 -30 35 7 c52 11 53 12 48 77 -4 49 -9 64 -34
88 -36 36 -79 45 -116 25z"/>
<path d="M2590 4460 c-37 -39 -45 -78 -26 -123 19 -46 56 -70 108 -70 35 0 47
6 75 36 47 52 47 105 -1 153 -29 29 -41 34 -81 34 -39 0 -52 -5 -75 -30z"/>
<path d="M6900 4479 c-95 -20 -111 -163 -23 -208 44 -22 92 -14 129 23 28 28
34 41 34 78 0 35 -6 50 -27 70 -37 35 -71 46 -113 37z"/>
<path d="M3125 3683 c3 -10 7 -21 8 -25 3 -10 -245 -218 -260 -218 -6 0 -15 5
-18 10 -3 6 -13 10 -22 10 -10 0 0 -16 29 -48 24 -26 49 -56 55 -67 7 -11 15
-16 19 -12 5 4 3 17 -4 27 -20 32 -14 43 50 94 l62 49 29 -34 c54 -63 60 -75
47 -99 -18 -34 -8 -32 42 8 46 37 62 60 33 48 -8 -3 -21 -9 -29 -12 -8 -3 -23
3 -33 13 -32 34 -73 83 -73 87 0 3 28 26 62 52 l61 48 24 -30 c14 -16 38 -46
54 -68 27 -37 28 -39 13 -68 -21 -40 -14 -43 25 -10 l34 28 -72 82 c-39 46
-82 98 -97 117 -28 37 -51 47 -39 18z"/>
<path d="M6487 3659 c-26 -15 -57 -83 -57 -124 0 -27 8 -44 30 -67 27 -27 36
-30 71 -25 22 3 70 24 106 47 37 23 80 42 96 42 57 2 87 -70 51 -121 -21 -30
-77 -53 -109 -45 -37 9 -30 -8 14 -33 l39 -23 35 39 c47 53 58 75 59 121 0 48
-21 84 -63 106 -43 22 -83 12 -165 -41 -38 -25 -79 -45 -91 -45 -53 0 -70 69
-29 116 18 22 32 28 60 27 40 -1 44 4 19 23 -21 16 -42 17 -66 3z"/>
<path d="M6293 3428 c-57 -49 -137 -137 -130 -145 4 -3 13 0 21 6 8 7 22 11
30 9 8 -2 67 -54 131 -116 108 -106 115 -115 101 -131 -9 -10 -16 -24 -16 -32
1 -8 27 15 60 51 60 66 67 80 31 60 -27 -14 -43 -5 -100 54 -38 38 -42 47 -31
61 17 21 42 19 144 -11 l89 -25 38 37 c43 42 43 52 2 35 -28 -11 -82 -6 -175
19 -37 11 -38 12 -38 58 -1 50 -12 72 -47 90 -36 20 -69 14 -110 -20z m93 -41
c37 -32 37 -79 1 -115 l-27 -26 -55 54 c-52 52 -54 55 -37 73 37 41 80 46 118
14z"/>
<path d="M3350 3437 c0 -5 7 -21 15 -36 l14 -29 -117 -107 c-64 -59 -123 -109
-130 -112 -7 -3 -24 5 -38 17 -16 16 -24 19 -24 10 0 -15 109 -130 122 -130 5
0 1 12 -9 27 l-17 26 94 89 c52 49 109 100 127 114 31 24 33 25 58 8 44 -29
35 -12 -31 61 -35 38 -64 66 -64 62z"/>
<path d="M3520 3261 c0 -6 5 -13 10 -16 24 -15 3 -48 -100 -163 l-111 -122
-25 16 c-49 32 -33 6 31 -50 61 -54 80 -60 53 -17 -10 16 -4 27 42 80 l54 62
20 -20 20 -21 -22 -92 c-12 -51 -22 -101 -22 -110 0 -15 69 -82 77 -75 1 2 -3
17 -9 35 -9 24 -9 48 1 108 18 106 16 104 68 104 60 0 93 32 93 92 0 41 -4 47
-82 121 -80 75 -98 87 -98 68z m109 -107 c51 -65 -6 -158 -80 -132 -15 5 -34
17 -42 26 -15 16 -12 22 34 75 28 31 54 57 59 57 5 0 18 -12 29 -26z"/>
<path d="M5987 3163 c-70 -52 -126 -98 -123 -100 2 -3 14 1 26 7 16 8 25 8 35
0 24 -20 195 -250 195 -262 0 -6 -7 -20 -17 -30 -39 -44 1 -18 134 84 l142
110 -22 44 c-11 24 -24 44 -28 44 -4 0 -6 -23 -5 -52 1 -51 1 -52 -59 -100
-94 -77 -86 -77 -144 0 l-51 67 38 32 c62 54 78 60 112 39 17 -9 30 -15 30
-12 0 13 -85 117 -88 108 -2 -6 2 -20 7 -31 13 -22 -1 -39 -72 -88 l-39 -27
-33 40 c-64 74 -65 81 -20 119 22 19 54 42 72 51 30 17 34 17 68 1 19 -9 35
-13 35 -9 -1 11 -48 62 -57 62 -4 0 -66 -44 -136 -97z"/>
<path d="M5820 3049 c0 -18 -9 -30 -32 -42 -18 -9 -75 -41 -126 -71 -59 -34
-100 -52 -112 -49 -24 6 -24 9 -5 -55 18 -60 30 -60 39 -3 5 31 13 43 42 60
19 12 39 21 43 21 5 0 45 -61 90 -135 70 -114 81 -137 71 -155 -6 -11 -15 -20
-20 -20 -6 0 -10 -7 -10 -16 0 -15 2 -15 23 0 12 9 48 30 79 48 76 43 76 59 2
31 -10 -4 -174 257 -174 277 0 9 42 37 74 50 19 7 30 4 49 -11 14 -10 28 -19
31 -19 8 0 -26 67 -48 95 -15 20 -15 19 -16 -6z"/>
<path d="M3764 3028 l25 -23 -74 -152 c-40 -84 -76 -153 -79 -153 -2 0 -17 5
-31 10 -19 7 -26 7 -23 0 3 -11 317 -165 322 -159 1 2 14 21 30 42 15 21 26
40 23 43 -2 3 -21 -6 -42 -20 -44 -30 -60 -28 -157 20 -63 32 -67 36 -58 58
19 50 61 126 69 126 20 0 107 -42 118 -57 7 -8 9 -28 6 -44 -9 -48 10 -32 40
33 29 64 28 89 -2 50 l-17 -23 -67 30 c-37 17 -67 35 -67 40 0 20 53 123 66
128 7 2 43 -10 81 -29 67 -32 68 -34 73 -78 l5 -45 23 43 23 42 -147 70 c-81
39 -151 70 -156 70 -5 0 2 -10 16 -22z"/>
<path d="M5423 2846 c-35 -11 -63 -25 -63 -30 0 -4 9 -6 20 -3 10 3 23 0 29
-7 11 -13 53 -138 48 -143 -7 -6 -180 -63 -193 -63 -7 0 -23 32 -36 71 l-23
71 24 19 c38 31 20 31 -60 -1 -72 -29 -75 -32 -34 -34 16 -1 28 -29 72 -161
l53 -160 -27 -23 c-30 -25 -28 -25 65 3 34 10 62 22 62 26 0 4 -8 5 -18 2 -10
-2 -23 2 -29 9 -17 21 -54 141 -46 148 19 16 196 71 203 64 4 -5 17 -38 29
-74 l21 -64 -27 -24 c-32 -26 -25 -26 62 4 28 9 57 20 65 22 9 3 0 8 -19 11
l-34 6 -53 155 c-53 153 -53 155 -34 172 20 17 26 29 13 27 -5 -1 -36 -11 -70
-23z"/>
<path d="M4220 2820 l25 -19 -39 -155 c-21 -85 -44 -160 -51 -166 -7 -6 -20
-8 -29 -4 -9 3 -16 1 -16 -5 0 -6 12 -13 28 -16 15 -3 49 -12 76 -20 28 -8 52
-12 55 -9 6 6 -23 30 -43 37 -10 3 18 142 33 159 7 8 110 -19 129 -34 6 -6 12
-22 12 -36 0 -41 15 -13 29 51 15 67 11 79 -13 42 -19 -28 -41 -31 -106 -11
-50 15 -49 13 -24 104 17 59 23 61 112 38 67 -18 82 -31 82 -69 0 -40 15 -24
24 25 5 30 3 37 -11 42 -47 13 -276 66 -286 66 -7 0 -1 -9 13 -20z"/>
<path d="M4530 2760 c0 -6 14 -13 31 -17 31 -6 31 -7 25 -52 -3 -25 -11 -98
-17 -161 -6 -63 -15 -121 -21 -127 -6 -7 -25 -13 -42 -14 -54 -1 0 -15 87 -23
81 -7 97 -2 47 15 -35 13 -34 5 -15 174 20 173 20 175 50 175 13 0 26 4 29 9
3 5 -27 12 -67 15 -39 4 -80 9 -89 12 -10 3 -18 0 -18 -6z"/>
<path d="M4849 2736 c-137 -49 -189 -204 -106 -320 26 -37 110 -76 164 -76 63
0 139 19 168 42 24 19 25 24 19 79 -7 58 -6 59 19 59 14 0 29 5 32 10 7 11
-103 14 -154 4 -41 -9 -40 -24 3 -24 38 0 46 -12 46 -71 0 -51 -33 -74 -106
-73 -95 0 -164 80 -164 189 0 93 50 158 134 174 63 12 109 -2 140 -42 29 -37
39 -33 30 12 -5 22 -15 36 -31 42 -35 13 -152 10 -194 -5z"/>
</g>
</svg>
